<svg width="140" height="111" viewBox="0 0 140 111" fill="none" xmlns="http://www.w3.org/2000/svg">
<g clip-path="url(#clip0_148_142)">
<path d="M11.7294 13.2486C15.6233 13.2486 18.7799 10.3079 18.7799 6.68043C18.7799 3.05296 15.6233 0.112305 11.7294 0.112305C7.83556 0.112305 4.67896 3.05296 4.67896 6.68043C4.67896 10.3079 7.83556 13.2486 11.7294 13.2486Z" fill="#91BBFF"/>
<path d="M41.0901 13.5932C44.7525 13.5932 47.7215 10.7847 47.7215 7.3203C47.7215 3.85585 44.7525 1.04736 41.0901 1.04736C37.4277 1.04736 34.4587 3.85585 34.4587 7.3203C34.4587 10.7847 37.4277 13.5932 41.0901 13.5932Z" fill="#91BBFF"/>
<path d="M25.7608 53.2167C27.5201 53.2167 28.9464 51.8226 28.9464 50.103C28.9464 48.3833 27.5201 46.9893 25.7608 46.9893C24.0014 46.9893 22.5752 48.3833 22.5752 50.103C22.5752 51.8226 24.0014 53.2167 25.7608 53.2167Z" fill="#91BBFF"/>
<path d="M40.4679 52.4248C42.2024 52.4248 43.6086 51.0324 43.6086 49.3149C43.6086 47.5974 42.2024 46.2051 40.4679 46.2051C38.7333 46.2051 37.3271 47.5974 37.3271 49.3149C37.3271 51.0324 38.7333 52.4248 40.4679 52.4248Z" fill="#91BBFF"/>
<path d="M24.5227 110.439C27.1251 110.439 29.2347 108.346 29.2347 105.763C29.2347 103.181 27.1251 101.087 24.5227 101.087C21.9204 101.087 19.8108 103.181 19.8108 105.763C19.8108 108.346 21.9204 110.439 24.5227 110.439Z" fill="#91BBFF"/>
<path d="M43.0266 110.954C45.629 110.954 47.7386 108.861 47.7386 106.278C47.7386 103.696 45.629 101.602 43.0266 101.602C40.4243 101.602 38.3147 103.696 38.3147 106.278C38.3147 108.861 40.4243 110.954 43.0266 110.954Z" fill="#91BBFF"/>
<path d="M57.8216 110.954C60.4239 110.954 62.5335 108.861 62.5335 106.278C62.5335 103.696 60.4239 101.602 57.8216 101.602C55.2192 101.602 53.1096 103.696 53.1096 106.278C53.1096 108.861 55.2192 110.954 57.8216 110.954Z" fill="#91BBFF"/>
<path d="M81.1184 110.954C83.7208 110.954 85.8304 108.861 85.8304 106.278C85.8304 103.696 83.7208 101.602 81.1184 101.602C78.5161 101.602 76.4065 103.696 76.4065 106.278C76.4065 108.861 78.5161 110.954 81.1184 110.954Z" fill="#91BBFF"/>
<path d="M95.1768 110.954C97.7791 110.954 99.8887 108.861 99.8887 106.278C99.8887 103.696 97.7791 101.602 95.1768 101.602C92.5744 101.602 90.4648 103.696 90.4648 106.278C90.4648 108.861 92.5744 110.954 95.1768 110.954Z" fill="#91BBFF"/>
<path d="M116.532 110.954C119.135 110.954 121.244 108.861 121.244 106.278C121.244 103.696 119.135 101.602 116.532 101.602C113.93 101.602 111.82 103.696 111.82 106.278C111.82 108.861 113.93 110.954 116.532 110.954Z" fill="#91BBFF"/>
<path d="M114.096 98.6937C115.491 101.638 115.228 102.95 115.208 103.252L120.192 104.234C119.859 101.508 118.621 95.9768 116.329 95.6577C115.12 95.688 112.981 96.3378 114.096 98.6937Z" fill="#91BBFF"/>
<path d="M92.0154 99.8813C93.0972 101.424 93.8895 103.371 93.8316 103.467L98.5262 104.759C98.4039 104.071 97.7805 101.856 96.2657 98.4932C94.3725 94.2903 91.3779 95.9483 91.2812 96.893C91.1846 97.8378 90.9336 98.339 92.0154 99.8813Z" fill="#91BBFF"/>
<path d="M79.499 99.8322C79.9518 100.87 80.0158 102.035 79.9916 102.488L84.9637 104.643C84.6417 102.053 83.5725 96.735 81.8725 96.1798C79.7471 95.4857 79.3313 96.5276 79.0799 97.0088C78.8282 97.4898 78.9331 98.5354 79.499 99.8322Z" fill="#91BBFF"/>
<path d="M41.8269 96.7083C42.5345 97.9141 42.395 101.574 42.2368 103.254C43.481 104.036 46.0644 105.355 46.4442 104.373C46.8239 103.391 47.0195 101.352 47.07 100.454C47.1203 98.5742 46.7936 94.5421 45.0848 93.457C42.9487 92.1006 42.2368 92.9619 42.0642 93.1987C41.8916 93.4355 40.9421 95.2009 41.8269 96.7083Z" fill="#91BBFF"/>
<path d="M27.5948 99.0722C26.7822 101.356 25.7914 102.12 25.3977 102.216C25.3977 104.023 26.0818 107.094 28.8177 104.926C32.2379 102.216 33.3159 97.9137 33.5024 97.1484C33.6889 96.3831 33.6683 94.0873 32.155 93.6735C30.642 93.2598 30.2274 93.6942 29.7298 94.0873C29.2323 94.4801 28.6105 96.2178 27.5948 99.0722Z" fill="#91BBFF"/>
<path d="M55.3159 96.9555C54.0379 97.9666 55.5871 100.832 56.5215 102.138C57.8074 102.99 60.4847 104.379 60.9067 103.118C61.4341 101.542 58.8271 97.3105 58.4503 96.8277C58.0737 96.3449 56.9132 95.6919 55.3159 96.9555Z" fill="#91BBFF"/>
<path fill-rule="evenodd" clip-rule="evenodd" d="M74.858 83.779C71.2625 85.55 65.1299 85.0089 62.5129 84.5169C61.3477 89.1247 59.2183 91.9039 58.2992 92.7175C56.4906 93.645 52.8735 94.5238 52.8735 90.6197C53.0654 83.5691 57.378 74.6711 60.6039 68.0154C61.4081 66.3562 62.1448 64.8363 62.7331 63.5191C65.6821 56.9181 71.5052 55.8018 75.6749 63.5191C78.7634 69.2355 86.9524 86.5309 84.8423 90.6197C80.9284 98.204 76.5553 89.2193 74.858 83.779ZM69.0731 69.1142C67.8183 71.5587 65.3326 76.6472 65.4288 77.4464C67.0506 77.6861 70.6711 77.8939 72.1767 76.8068C71.5228 74.8288 69.9861 70.5209 69.0731 69.1142Z" fill="#91BBFF"/>
<path fill-rule="evenodd" clip-rule="evenodd" d="M113.691 56.7355C108.712 56.6842 105.286 66.7451 104.195 71.7818C102.905 68.0199 99.5425 60.2082 96.418 59.056C93.2937 57.9038 91.5825 60.5961 91.1173 62.0862C88.7 71.0958 85.016 89.8932 89.6191 93.0061C94.2225 96.1188 96.5342 83.0206 97.1146 76.0825C97.8214 79.5955 100.227 86.7125 104.195 87.0751C108.164 87.4379 110.837 78.7725 111.678 74.3944C113.682 88.4638 114.558 89.6774 116.386 91.9824C118.215 94.2874 120.845 92.1105 121.551 90.7338C122.917 88.4664 121.487 80.244 121.102 75.6874C120.707 69.3916 118.67 56.7867 113.691 56.7355Z" fill="#91BBFF"/>
<path fill-rule="evenodd" clip-rule="evenodd" d="M11.5917 11.5303C17.4719 19.783 17.7406 26.8936 17.1399 29.4175C5.71183 35.1668 1.26612 49.1082 0.471769 55.3603C-1.99247 76.5806 11.7414 86.5742 18.9164 88.9184C23.815 91.0065 29.4213 91.3312 31.6123 91.2328C46.6012 91.2328 49.3201 81.9543 50.0053 78.1041C53.4633 58.6724 47.4033 56.8719 37.3183 58.1185C30.0523 59.0163 25.7532 59.5956 26.0307 63.8425C26.7334 69.7428 32.0446 69.136 34.0801 68.4125C39.1536 67.1059 39.2419 67.5934 39.4048 68.4946C39.4224 68.5908 39.4406 68.6917 39.4657 68.7956C40.6114 78.1041 35.3743 78.7575 28.239 78.7575C24.341 78.7575 15.0596 74.1574 13.7032 67.0323C10.0734 52.5469 16.7915 45.0198 21.0861 40.8774C25.2707 36.8408 31.01 35.6281 36.3466 35.9584C36.8419 35.9889 37.3561 36.0591 37.8752 36.1299C40.0943 36.4329 42.4026 36.7482 43.6959 34.0362C46.1493 27.5293 39.6181 25.2387 35.6284 25.2387C35.9017 22.3481 36.8855 17.4397 39.6181 13.4038C39.4869 10.0879 38.0878 8.69536 37.4046 8.41357L36.9401 9.50436C34.7448 12.0949 30.4853 18.8086 31.01 24.9387C28.9424 25.1387 24.2275 25.8386 21.9102 27.0385C22.1106 23.6571 21.3581 15.7817 16.7453 11.3314C12.1325 6.88106 11.3875 9.60971 11.5917 11.5303Z" fill="#91BBFF"/>
<path fill-rule="evenodd" clip-rule="evenodd" d="M128.377 88.2959C127.01 84.5885 127.134 73.7863 127.828 63.0242C126.117 63.0242 122.898 62.4105 123.711 59.955C124.523 57.4996 132.31 57.8586 136.102 58.3452C137.11 58.582 139.199 59.4503 139.486 61.0283C139.772 62.6062 136.697 63.0164 135.124 63.0242C133.833 69.4389 135.238 82.0602 136.102 87.5691C137.196 87.2092 139.473 87.0554 139.831 89.3182C140.189 91.5808 134.486 92.4195 131.589 92.5561C129.525 92.6056 125.226 92.3105 124.54 90.7336C123.854 89.1565 126.813 88.4513 128.377 88.2959Z" fill="#91BBFF"/>
</g>
<defs>
<clipPath id="clip0_148_142">
<rect width="140" height="111" fill="white"/>
</clipPath>
</defs>
</svg>
